<?xml version="1.0" encoding="UTF-8"?>
<svg id="Layer_2" data-name="Layer 2" xmlns="http://www.w3.org/2000/svg" viewBox="0 0 56.61 65.82">
  <defs>
    <style>
      .cls-1 {
        fill: #003f4a;
        stroke-width: 0px;
      }
    </style>
  </defs>
  <g id="Layer_1-2" data-name="Layer 1">
    <path class="cls-1" d="m2.14,65.82c-1.18,0-2.14-.96-2.14-2.14v-6.7c0-1.18.96-2.14,2.14-2.14h21.12c1.45,0,2.63-1.18,2.63-2.63v-5.7c0-1.45-1.18-2.63-2.63-2.63H2.14c-1.18,0-2.14-.96-2.14-2.14v-6.7c0-1.18.96-2.14,2.14-2.14h21.12c1.45,0,2.63-1.18,2.63-2.63v-5.7c0-1.45-1.18-2.63-2.63-2.63H2.14c-1.18,0-2.14-.96-2.14-2.14v-6.7c0-1.18.96-2.14,2.14-2.14h21.12c1.45,0,2.63-1.18,2.63-2.63V2.14c0-1.18.96-2.14,2.14-2.14h26.44c1.18,0,2.14.96,2.14,2.14v6.7c0,1.18-.96,2.14-2.14,2.14h-21.12c-1.45,0-2.63,1.18-2.63,2.63v5.7c0,1.45,1.18,2.63,2.63,2.63h21.12c1.18,0,2.14.96,2.14,2.14v6.7c0,1.18-.96,2.14-2.14,2.14h-21.12c-1.45,0-2.63,1.18-2.63,2.63v5.7c0,1.45,1.18,2.63,2.63,2.63h21.12c1.18,0,2.14.96,2.14,2.14v6.7c0,1.18-.96,2.14-2.14,2.14h-21.12c-1.45,0-2.63,1.18-2.63,2.63v6.2c0,1.18-.96,2.14-2.14,2.14H2.14Z"/>
  </g>
</svg>