<?xml version="1.0" encoding="UTF-8"?>
<svg id="Layer_2" data-name="Layer 2" xmlns="http://www.w3.org/2000/svg" viewBox="0 0 104.42 129.11">
  <defs>
    <style>
      .cls-1 {
        fill: #022018;
      }

      .cls-2 {
        fill: #d1f811;
      }
    </style>
  </defs>
  <g id="Layer_2-2" data-name="Layer 2">
    <g>
      <polygon class="cls-1" points="0 129.11 0 33.53 19.37 0 104.42 0 104.42 95.57 85.06 129.11 0 129.11"/>
      <path class="cls-2" d="M91.72,51.09c-1.57-2.36-4.06-3.68-7.57-3.68-4.38,0-9.63-.14-9.63-.14,0,0-5.24.14-9.63.14-6.64,0-9.63,4.75-9.63,12.21,0,15.12,10.55,22.04,19.25,22.04,6.36,0,13.71-3.69,17.2-11.58v22.09l-14,24.24h-45.49l19.97-34.59-26.7.09,19.91-34.49-32.66-.09s-.07-.03-.07-.07v-10.32l14-24.24h65.02v38.4h.03Z"/>
    </g>
  </g>
</svg>