<?xml version="1.0" encoding="UTF-8"?>
<svg id="Layer_2" xmlns="http://www.w3.org/2000/svg" version="1.1" viewBox="0 0 175.5 195.8">
  <!-- Generator: Adobe Illustrator 30.0.0, SVG Export Plug-In . SVG Version: 2.1.1 Build 123)  -->
  <defs>
    <style>
      .st0 {
        fill: #01803b;
      }

      .st1 {
        fill: #022018;
      }

      .st2 {
        fill: #d1f811;
      }
    </style>
  </defs>
  <g>
    <polygon class="st1" points="35.2 162.6 35.2 67.1 54.6 33.5 139.6 33.5 139.6 129.1 120.3 162.6 35.2 162.6"/>
    <path class="st2" d="M126.9,84.6c-1.6-2.4-4.1-3.7-7.6-3.7s-9.6-.1-9.6-.1c0,0-5.2.1-9.6.1-6.6,0-9.6,4.8-9.6,12.2,0,15.1,10.6,22,19.2,22s13.7-3.7,17.2-11.6v22.1l-14,24.2h-45.5l20-34.6h-26.7c0,0,19.9-34.4,19.9-34.4h-32.7c0,0,0-.1,0-.2v-10.3l14-24.2h65v38.4h0Z"/>
  </g>
  <g>
    <path class="st0" d="M27.7,28.4h0c1,0,1.9.8,1.9,1.9v10.2c0,1-.8,1.9-1.9,1.9h0c-1,0-1.9-.8-1.9-1.9v-10.2c0-1,.8-1.9,1.9-1.9Z"/>
    <path class="st0" d="M22.1,28.4h0c1,0,1.9.8,1.9,1.9v10.2c0,1-.8,1.9-1.9,1.9h0c-1,0-1.9-.8-1.9-1.9v-10.2c0-1,.8-1.9,1.9-1.9Z"/>
    <path class="st0" d="M16.5,28.4h0c1,0,1.9.8,1.9,1.9v10.2c0,1-.8,1.9-1.9,1.9h0c-1,0-1.9-.8-1.9-1.9v-10.2c0-1,.8-1.9,1.9-1.9Z"/>
  </g>
  <g>
    <path class="st1" d="M59.1,0v3.8h-6.6v11.7h-4.7V3.8h-6.6V0h17.9Z"/>
    <path class="st1" d="M65.7,0v5.7h7.9V0h4.7v15.6h-4.7v-6h-7.9v6h-4.7V0h4.7Z"/>
    <path class="st1" d="M93.2,0v3.8h-3.8v7.8h3.8v3.9h-12.2v-3.9h3.8V3.8h-3.8V0h12.2Z"/>
    <path class="st1" d="M107.4,0c3.5,0,5.5,2,5.5,4.7v.7c0,1.9-1,3.5-2.6,4.2l3.3,5.8h-5.2l-3-5.3h-4.9v5.3h-4.7V0h11.7ZM100.5,6.6h5.9c1.2,0,1.8-.4,1.8-1.3v-.3c0-.8-.6-1.4-1.8-1.4h-5.9v3Z"/>
    <path class="st1" d="M132.2,0v3.8h-6.6v11.7h-4.7V3.8h-6.6V0h17.9Z"/>
    <path class="st1" d="M138.2,0l4.4,5.3h1l4.2-5.3h4.9l-7.4,9.4v6.1h-4.7v-6.1l-7.8-9.4h5.3Z"/>
    <path class="st1" d="M175.3,29.1c0,5.2-1.9,8.4-6.9,8.4h-1.8c-4.9,0-6.8-3.1-6.8-8.4v-9.6h15.6s0,9.6,0,9.6ZM163.6,24.2v4.8c0,2.7,1,3.6,3,3.6h1.8c2.1,0,3.1-.9,3.1-3.6v-4.8h-7.8Z"/>
    <path class="st1" d="M175.3,55.7h-3.8v-10.9h-2.1v9.7h-3.5v-9.7h-2.4v11h-3.8v-15.8h15.6v15.6h0Z"/>
    <path class="st1" d="M175.5,67.6c0,5.2-2.2,8.7-6.2,8.7h-.2v-4.8h.2c1.2,0,2.1-1.2,2.1-3.9v-.9c0-2.7-1.1-4-3-4h-1.8c-2,0-3,1.3-3,4v.9c0,2.7.9,4,2.4,4h.4v4.8h-6.6v-4h1.5v-.8c-1.1-1.2-1.7-2.8-1.7-4.9v-.9c0-4.5,2.3-8,7.1-8h1.8c4.8,0,7.1,3.8,7.1,8.8v.9h0Z"/>
    <path class="st1" d="M175.3,90.9c0,3.5-2,5.5-4.7,5.5h-.7c-1.9,0-3.5-1-4.2-2.6l-5.8,3.3v-5.2l5.3-3v-4.9h-5.3v-4.7h15.6v11.7ZM168.7,84v5.9c0,1.2.4,1.8,1.4,1.8h.3c.8,0,1.4-.6,1.4-1.8v-5.9h-3Z"/>
    <path class="st1" d="M175.3,114.6h-3.8v-10.9h-2.1v9.7h-3.5v-9.7h-2.4v11h-3.8v-15.8h15.6v15.6h0Z"/>
    <path class="st1" d="M175.5,125.6c0,4.9-1.6,8.1-5.2,8.1h-.4v-4.6h.4c1.3,0,1.7-1.4,1.7-3.6v-.6c0-2.2-.4-3.6-1-3.6h-.2c-.9,0-1.1.9-1.6,5.5-.6,5-1.9,7.1-4.7,7.1h-.2c-2.9,0-4.8-2.8-4.8-8.3v-.6c0-5.7,1.9-8.5,5.4-8.5h.4v4.5h-.4c-1.6,0-1.9,1.4-1.9,4v.6c0,2.3.3,3.7,1.1,3.7h.2c.9,0,1.1-1.2,1.6-5.6.5-4.6,1.8-6.9,4.6-6.9h.2c3.1,0,4.8,3.1,4.8,8.2v.6h0Z"/>
  </g>
  <g>
    <path class="st1" d="M15.8,74.1c0,5.2-1.9,8.4-6.9,8.4h-1.8c-4.8,0-6.8-3.1-6.8-8.4v-9.6h15.6s0,9.6,0,9.6ZM4.1,69.3v4.8c0,2.7,1,3.6,3,3.6h1.8c2.1,0,3.1-.9,3.1-3.6v-4.8h-7.9Z"/>
    <path class="st1" d="M15.8,100.7h-3.8v-10.9h-2.1v9.7h-3.5v-9.7h-2.4v11H.2v-15.8h15.5v15.6h0Z"/>
    <path class="st1" d="M16,111.8c0,4.9-1.6,8.1-5.2,8.1h-.4v-4.6h.4c1.3,0,1.7-1.4,1.7-3.6v-.6c0-2.2-.4-3.6-1-3.6h-.2c-.9,0-1.1.9-1.6,5.5-.6,5-1.9,7.1-4.7,7.1h-.2C1.9,120.1,0,117.3,0,111.9v-.6c0-5.7,1.9-8.5,5.4-8.5h.3v4.5h-.3c-1.5,0-1.9,1.4-1.9,4v.6c0,2.3.3,3.7,1.1,3.7h.2c.9,0,1.1-1.2,1.5-5.6.5-4.6,1.8-6.9,4.6-6.9h.2c3.1,0,4.8,3.1,4.8,8.2v.6h0Z"/>
    <path class="st1" d="M15.8,134.3h-3.8v-3.8h-7.8v3.8H.2v-12.2h3.8v3.8h7.8v-3.8h3.9v12.2h0Z"/>
    <path class="st1" d="M16,146.1c0,5.2-2.2,8.7-6.2,8.7h-.2v-4.8h.2c1.2,0,2.1-1.2,2.1-3.9v-.9c0-2.6-1.1-3.9-3-3.9h-1.8c-2,0-3,1.3-3,4v.9c0,2.7.9,4,2.4,4h.3v4.9H.2v-4h1.5v-.8c-1.1-1.2-1.7-2.9-1.7-4.9v-.9c0-4.5,2.3-8,7.1-8h1.8c4.8,0,7.1,3.8,7.1,8.8v.9h0Z"/>
    <path class="st1" d="M15.8,163.8l-9.7,7.2v.6h9.7v4.4H.2v-6.1l9.7-7.2v-.6H.2v-4.4h15.5v6.1Z"/>
    <path class="st1" d="M29.8,179.7c4.9,0,8.1,1.6,8.1,5.2v.4h-4.5v-.4c0-1.3-1.4-1.7-3.6-1.7h-.6c-2.2,0-3.6.4-3.6,1v.2c0,.9.9,1.1,5.5,1.6,5,.6,7.1,1.9,7.1,4.7v.2c0,2.9-2.8,4.8-8.3,4.8h-.6c-5.7,0-8.5-1.9-8.5-5.4v-.4h4.5v.4c0,1.6,1.4,1.9,4,1.9h.6c2.3,0,3.7-.3,3.7-1.1v-.2c0-.9-1.2-1.1-5.6-1.6-4.6-.5-6.9-1.8-6.9-4.6v-.2c0-3.1,3.1-4.8,8.2-4.8h.6,0Z"/>
    <path class="st1" d="M57.1,180v3.9h-6.6v11.7h-4.7v-11.7h-6.6v-3.9h17.9Z"/>
    <path class="st1" d="M63.4,180v8.5c0,2.1,1,3.1,3.7,3.1h.7c2.8,0,3.7-1,3.7-3.1v-8.5h4.7v8.5c0,5.2-3.4,7.2-8.5,7.2h-.7c-5,0-8.5-2-8.5-7.2v-8.5h4.7Z"/>
    <path class="st1" d="M88.6,180c5.2,0,8.4,1.9,8.4,6.9v1.8c0,4.9-3.1,6.8-8.4,6.8h-9.6v-15.6h9.6ZM83.8,191.7h4.8c2.7,0,3.6-1,3.6-3v-1.8c0-2.1-.9-3.1-3.6-3.1h-4.8v7.8h0Z"/>
    <path class="st1" d="M111.1,180v3.9h-3.8v7.8h3.8v3.9h-12.2v-3.9h3.8v-7.8h-3.8v-3.9h12.2Z"/>
    <path class="st1" d="M123.3,179.7c5.1,0,9.1,2.5,9.1,7.1v1.9c0,4.6-4,7.1-9.1,7.1h-.9c-5.2,0-9.3-2.5-9.3-7.1v-1.9c0-4.6,4-7.1,9.3-7.1,0,0,.9,0,.9,0ZM117.9,186.9v1.7c0,2,1.6,3.1,4.5,3.1h.7c2.8,0,4.5-1.1,4.5-3.1v-1.7c0-2-1.7-3.1-4.5-3.1h-.7c-2.8,0-4.5,1.1-4.5,3.1Z"/>
  </g>
  <rect class="st0" x="143.9" y="153.8" width="15" height="13.9" rx="1.9" ry="1.9"/>
</svg>