<?xml version="1.0" encoding="UTF-8"?>
<svg id="Layer_2" xmlns="http://www.w3.org/2000/svg" version="1.1" viewBox="0 0 318.4 89.3">
  <!-- Generator: Adobe Illustrator 30.0.0, SVG Export Plug-In . SVG Version: 2.1.1 Build 123)  -->
  <defs>
    <style>
      .st0 {
        fill: #022018;
      }

      .st1 {
        fill: #d1f811;
      }
    </style>
  </defs>
  <g>
    <polygon class="st0" points="0 89.3 0 23.2 13.4 0 72.2 0 72.2 66.1 58.8 89.3 0 89.3"/>
    <path class="st1" d="M63.4,35.3c-1.1-1.6-2.8-2.5-5.2-2.5s-6.7,0-6.7,0c0,0-3.6,0-6.7,0-4.6,0-6.7,3.3-6.7,8.4,0,10.5,7.3,15.2,13.3,15.2s9.5-2.6,11.9-8v15.3l-9.7,16.8h-31.5l13.8-23.9h-18.5c0,0,13.8-23.8,13.8-23.8H8.8c0,0,0,0,0-.1v-7.1l9.7-16.8h45v26.5h0Z"/>
  </g>
  <g id="Layer_1-2">
    <g>
      <path class="st0" d="M116.9,8.8v7.9h-13.4v23.9h-9.7v-24h-13.4v-7.8h36.5Z"/>
      <path class="st0" d="M130.4,8.8v11.6h16.2v-11.6h9.7v31.8h-9.7v-12.3h-16.2v12.3h-9.7V8.8s9.7,0,9.7,0Z"/>
      <path class="st0" d="M186.5,8.8v7.9h-7.7v16h7.7v7.9h-25v-7.9h7.7v-16.1h-7.7v-7.8h25Z"/>
      <path class="st0" d="M215.6,8.8c7.2,0,11.2,4.1,11.2,9.7v1.5c0,3.9-2,7.1-5.4,8.7l6.7,11.9h-10.7l-6.1-10.8h-10v10.8h-9.7V8.8h24ZM201.4,22.2h12c2.5,0,3.6-.9,3.6-2.8v-.6c0-1.7-1.1-2.8-3.6-2.8h-12v6.2Z"/>
      <path class="st0" d="M266.2,8.8v7.9h-13.4v23.9h-9.7v-24h-13.4v-7.8h36.5,0Z"/>
      <path class="st0" d="M278.4,8.8l9,10.9h2.1l8.6-10.9h10.1l-15,19.3v12.5h-9.6v-12.5l-16.1-19.3h10.9Z"/>
      <path class="st0" d="M102,48.2c10.6,0,17.2,4,17.2,14.2v3.6c0,9.9-6.4,13.9-17.2,13.9h-19.5v-31.8h19.5ZM92.2,72.1h9.9c5.6,0,7.3-2,7.3-6.1v-3.7c0-4.2-1.8-6.3-7.3-6.3h-9.9v16h0Z"/>
      <path class="st0" d="M156.4,48.2v7.7h-22.3v4.3h19.8v7.2h-19.8v4.9h22.5v7.7h-32.2v-31.8s32,0,32,0Z"/>
      <path class="st0" d="M180.8,47.7c10.7,0,17.7,4.5,17.7,12.7v.5h-9.8v-.5c0-2.4-2.4-4.4-8-4.4h-1.9c-5.4,0-8.1,2.3-8.1,6.2v3.7c0,4.2,2.7,6.2,8.1,6.2h1.9c5.6,0,8.1-1.9,8.1-4.9v-.7h9.9v13.5h-8.1v-3h-1.6c-2.4,2.3-5.8,3.5-10,3.5h-1.9c-9.2,0-16.3-4.7-16.3-14.6v-3.7c0-9.8,7.7-14.5,17.9-14.5h2.1Z"/>
      <path class="st0" d="M228.4,48.2c7.2,0,11.2,4.1,11.2,9.7v1.5c0,3.9-2,7.1-5.4,8.7l6.7,11.9h-10.7l-6.1-10.8h-10v10.8h-9.7v-31.8h24ZM214.2,61.7h12c2.5,0,3.6-.9,3.6-2.8v-.6c0-1.7-1.1-2.8-3.6-2.8h-12s0,6.2,0,6.2Z"/>
      <path class="st0" d="M276.8,48.2v7.7h-22.3v4.3h19.8v7.2h-19.8v4.9h22.5v7.7h-32.2v-31.8s32,0,32,0Z"/>
      <path class="st0" d="M299.3,47.7c10,0,16.5,3.4,16.5,10.6v.8h-9.3v-.8c0-2.7-2.9-3.4-7.3-3.4h-1.1c-4.6,0-7.4.7-7.4,2.1v.4c0,1.8,1.8,2.2,11.2,3.3,10.2,1.2,14.5,4,14.5,9.5v.5c0,5.9-5.7,9.7-16.9,9.7h-1.2c-11.6,0-17.4-3.9-17.4-11.1v-.7h9.2v.7c0,3.2,2.9,3.8,8.2,3.8h1.1c4.7,0,7.5-.6,7.5-2.3v-.4c0-1.8-2.6-2.2-11.4-3.2-9.4-.9-14.2-3.7-14.2-9.4v-.4c0-6.4,6.4-9.8,16.7-9.8h1.3Z"/>
      <path class="st0" d="M313.7,8.8v.7h-1.1v3.3h-.8v-3.4h-1.3v-.6h3.2,0ZM315.5,8.8l.9,1.9h.2l.8-1.9h1v4h-.8v-2.8h-.2l-.8,1.8h-.6l-.9-1.8h-.2v2.7h-.8v-3.9h1.4Z"/>
    </g>
  </g>
</svg>